<?xml version="1.0" standalone="no"?>
<!DOCTYPE svg PUBLIC "-//W3C//DTD SVG 20010904//EN"
 "http://www.w3.org/TR/2001/REC-SVG-20010904/DTD/svg10.dtd">
<svg version="1.0" xmlns="http://www.w3.org/2000/svg"
 width="1227.000000pt" height="1227.000000pt" viewBox="0 0 1227.000000 1227.000000"
 preserveAspectRatio="xMidYMid meet">
<metadata>
Created by potrace 1.11, written by Peter Selinger 2001-2013
</metadata>
<g transform="translate(0.000000,1227.000000) scale(0.100000,-0.100000)"
fill="#000000" stroke="none">
<path d="M5532 12258 c-159 -24 -318 -111 -507 -278 -103 -91 -1392 -1376
-1495 -1490 -168 -186 -253 -322 -296 -475 -25 -86 -24 -292 1 -409 2 -12 6
-34 9 -51 2 -16 9 -52 16 -80 6 -27 13 -57 15 -65 2 -8 17 -69 33 -135 28
-108 52 -199 122 -460 12 -44 35 -132 52 -195 58 -224 157 -556 191 -646 147
-382 300 -498 880 -664 406 -116 1197 -320 1302 -335 22 -3 47 -8 55 -11 8 -3
76 -8 150 -10 110 -2 149 1 210 16 152 40 294 129 482 301 173 158 397 382
392 391 -3 5 -1 7 4 6 12 -4 979 963 1081 1080 216 248 287 394 296 602 7 169
-34 380 -175 900 -32 118 -81 303 -110 410 -173 653 -253 833 -434 982 -83 69
-208 132 -370 187 -114 40 -509 152 -686 195 -8 2 -76 20 -150 41 -239 64
-285 77 -300 80 -8 2 -78 20 -155 39 -260 66 -485 93 -613 74z m-1472 -1744
c24 -3 78 -12 120 -20 41 -8 89 -18 105 -21 28 -5 183 -44 315 -79 30 -9 62
-17 70 -19 19 -4 193 -51 285 -76 39 -11 81 -22 95 -25 14 -3 63 -16 110 -29
47 -13 137 -38 200 -55 258 -70 479 -147 575 -199 167 -90 280 -220 362 -414
68 -162 98 -263 318 -1084 42 -155 78 -290 80 -300 2 -10 19 -86 38 -168 59
-258 68 -424 32 -571 -4 -17 -18 -25 -57 -35 -57 -13 -220 -17 -305 -6 -81 11
-286 54 -433 93 -74 19 -142 36 -150 38 -8 2 -125 34 -260 70 -135 36 -297 80
-360 97 -541 145 -726 224 -871 371 -50 51 -149 194 -149 216 0 5 -11 30 -24
58 -23 49 -87 238 -125 369 -66 231 -307 1146 -317 1205 -3 14 -11 57 -19 95
-30 147 -35 289 -16 402 12 71 13 73 47 79 113 21 209 24 334 8z"/>
<path d="M8533 4293 l2 -2067 223 -1 222 0 0 675 0 675 53 -55 c29 -30 106
-113 172 -185 65 -71 164 -179 219 -239 56 -60 108 -117 116 -126 14 -16 117
-128 265 -289 33 -36 91 -99 129 -141 39 -41 77 -82 85 -91 9 -8 48 -51 86
-93 39 -43 81 -90 95 -105 l25 -26 310 1 c171 1 310 2 311 3 1 1 -16 19 -362
377 -122 126 -245 254 -274 284 -29 30 -159 165 -290 300 -347 358 -455 471
-458 479 -2 7 36 49 248 268 138 143 459 478 550 573 40 41 163 169 274 283
110 115 203 213 204 218 2 5 -118 9 -286 9 l-289 0 -66 -72 c-35 -40 -78 -87
-93 -103 -16 -17 -69 -75 -119 -130 -49 -54 -117 -127 -149 -162 -32 -35 -66
-72 -75 -82 -9 -10 -55 -61 -103 -112 -47 -52 -95 -103 -105 -115 -10 -12 -62
-69 -116 -127 -54 -58 -107 -115 -117 -128 -11 -12 -61 -66 -112 -121 -51 -55
-97 -106 -101 -114 -4 -8 -12 -14 -17 -14 -6 0 -10 489 -10 1310 l0 1310 -225
0 -224 0 2 -2067z"/>
<path d="M4145 6301 c-87 -23 -173 -101 -200 -180 -48 -145 10 -295 139 -364
61 -33 203 -31 266 2 94 50 150 136 157 241 9 118 -53 225 -159 278 -50 25
-153 36 -203 23z"/>
<path d="M1405 6116 c-2 -12 -3 -892 -2 -1956 l2 -1934 1010 0 1010 0 3 207 2
207 -785 0 -785 0 0 1748 0 1748 -225 1 c-220 0 -226 -1 -230 -21z"/>
<path d="M6707 5084 c-1 -1 -40 -4 -87 -7 -177 -12 -375 -85 -512 -187 -83
-63 -195 -182 -249 -266 -23 -35 -45 -64 -49 -64 -4 0 -7 91 -7 203 -1 111 -2
214 -2 230 l-1 27 -220 0 c-121 0 -221 -3 -221 -7 -4 -25 -3 -2783 1 -2784 30
-6 433 -2 437 5 4 5 7 396 9 870 1 474 5 878 8 898 14 82 59 217 97 288 123
229 314 372 542 408 59 9 221 8 267 -2 14 -3 39 -9 55 -12 44 -10 141 -59 189
-95 96 -74 177 -211 215 -364 21 -82 25 -102 37 -190 4 -27 8 -444 9 -925 2
-481 3 -877 4 -880 2 -8 435 -6 441 2 8 9 4 1802 -4 1888 -18 203 -60 363
-131 504 -124 244 -314 386 -590 440 -66 13 -229 27 -238 20z"/>
<path d="M3988 5008 c-7 -24 -2 -2768 6 -2775 8 -8 435 -11 437 -3 3 15 4
2767 1 2778 -3 9 -57 12 -222 12 -166 0 -219 -3 -222 -12z"/>
<path d="M7845 1631 c-75 -22 -108 -105 -68 -172 20 -34 72 -57 115 -51 38 6
93 60 96 95 6 80 -71 149 -143 128z"/>
<path d="M6875 1422 l-80 -27 -2 -105 c-1 -58 -2 -118 -2 -135 l-1 -30 -93 0
-92 0 -1 -72 c-1 -49 2 -73 10 -74 6 -1 48 -1 94 -1 45 0 82 -2 82 -6 0 -4 1
-167 2 -362 1 -381 6 -428 53 -499 14 -20 41 -47 61 -60 67 -46 207 -59 299
-29 l39 13 2 73 c1 39 0 72 -3 72 -2 0 -18 -6 -36 -14 -42 -17 -140 -13 -172
8 -14 9 -33 31 -42 49 -16 29 -18 66 -18 392 l0 360 130 0 c72 0 133 4 136 8
3 4 5 38 5 75 l-2 67 -137 0 -137 0 0 163 c0 89 -3 162 -7 162 -5 -1 -44 -13
-88 -28z"/>
<path d="M1957 1154 c-1 -1 -29 -4 -62 -7 -129 -13 -232 -62 -326 -156 -129
-130 -183 -319 -155 -544 18 -146 107 -291 223 -365 144 -92 384 -105 541 -30
l47 23 3 83 c2 45 0 82 -3 82 -3 0 -23 -11 -43 -25 -65 -45 -163 -69 -254 -62
-213 17 -339 167 -340 407 -1 113 7 149 48 235 98 202 340 268 551 150 l43
-24 0 90 0 90 -34 14 c-33 14 -54 19 -131 31 -46 6 -104 11 -108 8z"/>
<path d="M4235 1148 c-151 -20 -266 -94 -352 -226 -62 -96 -90 -198 -92 -340
-4 -199 51 -355 158 -454 100 -93 196 -126 361 -123 122 3 221 24 303 68 l57
30 0 83 0 84 -52 -34 c-99 -62 -160 -80 -283 -80 -98 0 -116 2 -165 25 -62 29
-122 85 -150 138 -36 72 -61 210 -38 212 7 0 182 2 388 2 l375 2 -1 90 c0 50
-3 110 -7 135 -15 113 -83 244 -154 297 -21 15 -40 30 -43 33 -15 17 -117 51
-167 56 -32 3 -62 6 -68 8 -5 1 -37 -1 -70 -6z m153 -160 c24 -6 59 -26 81
-47 59 -56 86 -117 95 -222 l4 -37 -298 0 -297 0 9 41 c32 144 135 258 249
273 24 3 45 8 47 9 5 5 62 -4 110 -17z"/>
<path d="M5650 1152 c-66 -5 -204 -44 -254 -72 l-51 -27 -3 -92 -3 -92 51 37
c117 84 305 122 405 82 64 -26 100 -75 120 -163 21 -96 20 -98 -65 -112 -41
-6 -97 -14 -125 -17 -255 -30 -366 -75 -433 -176 -39 -59 -54 -109 -55 -184
-2 -147 48 -238 162 -295 99 -50 266 -50 363 0 41 21 112 86 144 133 l21 29
-1 -87 c-1 -97 -9 -88 89 -88 102 0 90 -48 88 369 -1 411 -5 471 -34 547 -55
147 -212 225 -419 208z m275 -660 c-3 -118 -25 -179 -86 -246 -63 -69 -117
-91 -219 -90 -84 0 -122 15 -163 64 -55 65 -57 181 -3 243 19 22 136 85 136
73 0 -2 17 0 38 5 20 4 62 11 92 15 30 3 73 9 95 13 22 4 56 8 77 9 l36 3 -3
-89z"/>
<path d="M10380 1153 c-128 -9 -232 -56 -321 -147 -103 -103 -159 -247 -161
-413 -3 -211 45 -355 154 -463 93 -92 217 -132 388 -125 112 5 192 24 277 67
l63 31 -1 82 -1 82 -76 -43 c-230 -131 -495 -80 -583 113 -22 49 -45 163 -37
185 4 10 79 13 386 12 339 -1 381 1 385 15 2 9 2 54 1 101 -9 229 -96 390
-250 461 -61 28 -159 46 -224 42z m134 -172 c87 -38 145 -127 153 -235 l6 -63
-296 -1 -295 -1 5 32 c15 96 82 200 159 248 77 47 188 56 268 20z"/>
<path d="M3228 1144 c-2 -1 -15 -5 -30 -8 -70 -12 -152 -85 -189 -167 -13 -27
-26 -49 -29 -49 -4 0 -6 43 -6 96 1 53 -1 99 -4 104 -3 4 -42 7 -87 7 -69 0
-83 -3 -84 -16 -5 -90 -3 -1060 2 -1071 6 -13 76 -18 164 -11 6 1 10 113 10
316 -1 333 5 398 46 482 60 124 156 173 289 148 19 -3 40 -11 47 -17 10 -8 13
7 13 80 0 50 -4 94 -10 97 -10 6 -127 15 -132 9z"/>
<path d="M7781 578 c0 -414 3 -548 12 -549 16 -1 106 -1 139 0 l26 1 -1 548
-2 547 -87 1 -87 0 0 -548z"/>
<path d="M8460 1118 c0 -11 206 -561 231 -615 10 -24 19 -45 19 -49 0 -13 152
-409 160 -418 7 -7 110 -11 166 -7 7 1 15 13 18 27 4 14 15 45 26 68 24 55
391 978 393 991 2 12 -171 16 -179 4 -3 -5 -18 -44 -33 -86 -16 -43 -79 -215
-141 -383 -62 -168 -122 -343 -134 -390 l-23 -85 -8 45 c-4 24 -32 114 -62
200 -30 85 -59 166 -63 180 -5 14 -36 104 -70 200 -34 96 -70 201 -80 232 -33
99 -27 95 -130 95 -49 0 -90 -4 -90 -9z"/>
</g>
</svg>
